<svg width="956" height="319" viewBox="0 0 956 319" fill="none" xmlns="http://www.w3.org/2000/svg">
<g filter="url(#filter0_dd_12_2652)">
<rect x="10" y="108.17" width="28" height="28" rx="3" fill="white"/>
<g clip-path="url(#clip0_12_2652)">
<path fill-rule="evenodd" clip-rule="evenodd" d="M22 124.17H17V120.17H22V115.17H26V120.17H31V124.17H26V129.17H22V124.17Z" fill="#666666"/>
</g>
</g>
<g filter="url(#filter1_dd_12_2652)">
<rect x="10" y="286.17" width="28" height="28" rx="3" fill="white"/>
<g clip-path="url(#clip1_12_2652)">
<path fill-rule="evenodd" clip-rule="evenodd" d="M17 298.17H31V302.17H17V298.17Z" fill="#666666"/>
</g>
</g>
<g filter="url(#filter2_dd_12_2652)">
<mask id="path-5-inside-1_12_2652" fill="white">
<path d="M21 136.17H27V286.17H21V136.17Z"/>
</mask>
<path d="M21 136.17H27V286.17H21V136.17Z" fill="white" fill-opacity="0.4" shape-rendering="crispEdges"/>
<path d="M26 136.17V286.17H28V136.17H26ZM22 286.17V136.17H20V286.17H22Z" fill="black" fill-opacity="0.2" mask="url(#path-5-inside-1_12_2652)"/>
<g filter="url(#filter3_dd_12_2652)">
<rect x="10" y="162.17" width="28" height="15" rx="3" fill="white"/>
<g clip-path="url(#clip2_12_2652)">
<path fill-rule="evenodd" clip-rule="evenodd" d="M19 168.17H20V169.17H19V168.17ZM22 168.17H23V169.17H22V168.17ZM25 168.17H26V169.17H25V168.17ZM28 168.17H29V169.17H28V168.17ZM19 171.17H20V172.17H19V171.17ZM22 171.17H23V172.17H22V171.17ZM25 171.17H26V172.17H25V171.17ZM28 171.17H29V172.17H28V171.17Z" fill="#666666"/>
<path fill-rule="evenodd" clip-rule="evenodd" d="M19 169.17H20V170.17H19V169.17ZM22 169.17H23V170.17H22V169.17ZM25 169.17H26V170.17H25V169.17ZM28 169.17H29V170.17H28V169.17ZM19 172.17H20V173.17H19V172.17ZM22 172.17H23V173.17H22V172.17ZM25 172.17H26V173.17H25V172.17ZM28 172.17H29V173.17H28V172.17Z" fill="white" fill-opacity="0.75"/>
</g>
</g>
</g>
<defs>
<filter id="filter0_dd_12_2652" x="7" y="106.17" width="34" height="34" filterUnits="userSpaceOnUse" color-interpolation-filters="sRGB">
<feFlood flood-opacity="0" result="BackgroundImageFix"/>
<feColorMatrix in="SourceAlpha" type="matrix" values="0 0 0 0 0 0 0 0 0 0 0 0 0 0 0 0 0 0 127 0" result="hardAlpha"/>
<feMorphology radius="3" operator="erode" in="SourceAlpha" result="effect1_dropShadow_12_2652"/>
<feOffset dy="2"/>
<feGaussianBlur stdDeviation="2.5"/>
<feComposite in2="hardAlpha" operator="out"/>
<feColorMatrix type="matrix" values="0 0 0 0 0 0 0 0 0 0 0 0 0 0 0 0 0 0 0.15 0"/>
<feBlend mode="normal" in2="BackgroundImageFix" result="effect1_dropShadow_12_2652"/>
<feColorMatrix in="SourceAlpha" type="matrix" values="0 0 0 0 0 0 0 0 0 0 0 0 0 0 0 0 0 0 127 0" result="hardAlpha"/>
<feMorphology radius="1" operator="dilate" in="SourceAlpha" result="effect2_dropShadow_12_2652"/>
<feOffset dy="1"/>
<feGaussianBlur stdDeviation="1"/>
<feComposite in2="hardAlpha" operator="out"/>
<feColorMatrix type="matrix" values="0 0 0 0 0 0 0 0 0 0 0 0 0 0 0 0 0 0 0.15 0"/>
<feBlend mode="normal" in2="effect1_dropShadow_12_2652" result="effect2_dropShadow_12_2652"/>
<feBlend mode="normal" in="SourceGraphic" in2="effect2_dropShadow_12_2652" result="shape"/>
</filter>
<filter id="filter1_dd_12_2652" x="7" y="284.17" width="34" height="34" filterUnits="userSpaceOnUse" color-interpolation-filters="sRGB">
<feFlood flood-opacity="0" result="BackgroundImageFix"/>
<feColorMatrix in="SourceAlpha" type="matrix" values="0 0 0 0 0 0 0 0 0 0 0 0 0 0 0 0 0 0 127 0" result="hardAlpha"/>
<feMorphology radius="3" operator="erode" in="SourceAlpha" result="effect1_dropShadow_12_2652"/>
<feOffset dy="2"/>
<feGaussianBlur stdDeviation="2.5"/>
<feComposite in2="hardAlpha" operator="out"/>
<feColorMatrix type="matrix" values="0 0 0 0 0 0 0 0 0 0 0 0 0 0 0 0 0 0 0.15 0"/>
<feBlend mode="normal" in2="BackgroundImageFix" result="effect1_dropShadow_12_2652"/>
<feColorMatrix in="SourceAlpha" type="matrix" values="0 0 0 0 0 0 0 0 0 0 0 0 0 0 0 0 0 0 127 0" result="hardAlpha"/>
<feMorphology radius="1" operator="dilate" in="SourceAlpha" result="effect2_dropShadow_12_2652"/>
<feOffset dy="1"/>
<feGaussianBlur stdDeviation="1"/>
<feComposite in2="hardAlpha" operator="out"/>
<feColorMatrix type="matrix" values="0 0 0 0 0 0 0 0 0 0 0 0 0 0 0 0 0 0 0.15 0"/>
<feBlend mode="normal" in2="effect1_dropShadow_12_2652" result="effect2_dropShadow_12_2652"/>
<feBlend mode="normal" in="SourceGraphic" in2="effect2_dropShadow_12_2652" result="shape"/>
</filter>
<filter id="filter2_dd_12_2652" x="9" y="136.17" width="30" height="150" filterUnits="userSpaceOnUse" color-interpolation-filters="sRGB">
<feFlood flood-opacity="0" result="BackgroundImageFix"/>
<feColorMatrix in="SourceAlpha" type="matrix" values="0 0 0 0 0 0 0 0 0 0 0 0 0 0 0 0 0 0 127 0" result="hardAlpha"/>
<feOffset dx="-1"/>
<feComposite in2="hardAlpha" operator="out"/>
<feColorMatrix type="matrix" values="0 0 0 0 0 0 0 0 0 0 0 0 0 0 0 0 0 0 0.15 0"/>
<feBlend mode="normal" in2="BackgroundImageFix" result="effect1_dropShadow_12_2652"/>
<feColorMatrix in="SourceAlpha" type="matrix" values="0 0 0 0 0 0 0 0 0 0 0 0 0 0 0 0 0 0 127 0" result="hardAlpha"/>
<feOffset dx="1"/>
<feComposite in2="hardAlpha" operator="out"/>
<feColorMatrix type="matrix" values="0 0 0 0 0 0 0 0 0 0 0 0 0 0 0 0 0 0 0.15 0"/>
<feBlend mode="normal" in2="effect1_dropShadow_12_2652" result="effect2_dropShadow_12_2652"/>
<feBlend mode="normal" in="SourceGraphic" in2="effect2_dropShadow_12_2652" result="shape"/>
</filter>
<filter id="filter3_dd_12_2652" x="7" y="160.17" width="34" height="21" filterUnits="userSpaceOnUse" color-interpolation-filters="sRGB">
<feFlood flood-opacity="0" result="BackgroundImageFix"/>
<feColorMatrix in="SourceAlpha" type="matrix" values="0 0 0 0 0 0 0 0 0 0 0 0 0 0 0 0 0 0 127 0" result="hardAlpha"/>
<feMorphology radius="3" operator="erode" in="SourceAlpha" result="effect1_dropShadow_12_2652"/>
<feOffset dy="2"/>
<feGaussianBlur stdDeviation="2.5"/>
<feComposite in2="hardAlpha" operator="out"/>
<feColorMatrix type="matrix" values="0 0 0 0 0 0 0 0 0 0 0 0 0 0 0 0 0 0 0.15 0"/>
<feBlend mode="normal" in2="BackgroundImageFix" result="effect1_dropShadow_12_2652"/>
<feColorMatrix in="SourceAlpha" type="matrix" values="0 0 0 0 0 0 0 0 0 0 0 0 0 0 0 0 0 0 127 0" result="hardAlpha"/>
<feMorphology radius="1" operator="dilate" in="SourceAlpha" result="effect2_dropShadow_12_2652"/>
<feOffset dy="1"/>
<feGaussianBlur stdDeviation="1"/>
<feComposite in2="hardAlpha" operator="out"/>
<feColorMatrix type="matrix" values="0 0 0 0 0 0 0 0 0 0 0 0 0 0 0 0 0 0 0.15 0"/>
<feBlend mode="normal" in2="effect1_dropShadow_12_2652" result="effect2_dropShadow_12_2652"/>
<feBlend mode="normal" in="SourceGraphic" in2="effect2_dropShadow_12_2652" result="shape"/>
</filter>
<clipPath id="clip0_12_2652">
<rect width="26" height="26" fill="white" transform="translate(11 109.17)"/>
</clipPath>
<clipPath id="clip1_12_2652">
<rect width="26" height="26" fill="white" transform="translate(11 287.17)"/>
</clipPath>
<clipPath id="clip2_12_2652">
<rect width="10" height="5" fill="white" transform="translate(19 168.17)"/>
</clipPath>
</defs>
</svg>
