<svg width="26" height="8" viewBox="0 0 26 8" fill="none" xmlns="http://www.w3.org/2000/svg">
<g clip-path="url(#clip0_12_2686)">
<g clip-path="url(#clip1_12_2686)">
<path d="M13 3.16992C11.6155 3.16982 10.262 3.58031 9.11075 4.34947C7.95951 5.11864 7.06223 6.21192 6.53237 7.49107C6.00252 8.77021 5.86389 10.1778 6.13403 11.5357C6.40417 12.8936 7.07094 14.141 8.05 15.1199C9.32 16.3899 12.3 18.2199 12.47 20.1499C12.5 20.4299 12.71 20.6699 13 20.6699C13.29 20.6699 13.5 20.4299 13.53 20.1499C13.7 18.2199 16.68 16.3899 17.95 15.1199C18.9291 14.141 19.5958 12.8936 19.866 11.5357C20.1361 10.1778 19.9975 8.77021 19.4676 7.49107C18.9378 6.21192 18.0405 5.11864 16.8893 4.34947C15.738 3.58031 14.3845 3.16982 13 3.16992Z" fill="#FF4433"/>
<path d="M13 12.62C13.3217 12.62 13.6403 12.5566 13.9376 12.4335C14.2348 12.3104 14.5049 12.1299 14.7324 11.9024C14.9599 11.6749 15.1404 11.4048 15.2635 11.1075C15.3866 10.8103 15.45 10.4917 15.45 10.17C15.45 9.84823 15.3866 9.52964 15.2635 9.2324C15.1404 8.93515 14.9599 8.66506 14.7324 8.43756C14.5049 8.21006 14.2348 8.02959 13.9376 7.90647C13.6403 7.78334 13.3217 7.71997 13 7.71997C12.3502 7.71997 11.7271 7.97809 11.2676 8.43756C10.8081 8.89702 10.55 9.52019 10.55 10.17C10.55 10.8198 10.8081 11.4429 11.2676 11.9024C11.7271 12.3618 12.3502 12.62 13 12.62Z" fill="white"/>
</g>
</g>
<defs>
<clipPath id="clip0_12_2686">
<rect width="14" height="18" fill="white" transform="translate(6 3.16992)"/>
</clipPath>
<clipPath id="clip1_12_2686">
<rect width="14" height="18" fill="white" transform="translate(6 3.16992)"/>
</clipPath>
</defs>
</svg>
